<?xml version="1.0" encoding="utf-8"?>
<!-- Generator: Adobe Illustrator 23.0.0, SVG Export Plug-In . SVG Version: 6.00 Build 0)  -->
<svg version="1.1" id="Layer_1" xmlns="http://www.w3.org/2000/svg" xmlns:xlink="http://www.w3.org/1999/xlink" x="0px" y="0px"
	 viewBox="0 0 1280 769" style="enable-background:new 0 0 1280 769;" xml:space="preserve">
<style type="text/css">
	.st0{fill:#636363;}
</style>
<g>
	<g>
		<g>
			<rect x="638.6" y="332.02" class="st0" width="6.62" height="105.01"/>
		</g>
	</g>
	<g>
		<g>
			<path class="st0" d="M473.9,346.82v13.03l-1.81-2.11c-6.95-8.48-15.85-12.78-26.49-12.78c-10.84,0-19.91,3.73-26.98,11.09
				c-7.1,7.22-10.69,16.6-10.69,27.87c0,11.53,3.5,20.89,10.7,28.62c7.07,7.65,16.14,11.54,26.97,11.54
				c10.84,0,19.76-4.2,26.49-12.49l1.81-2.14v12.74h11.26v-75.38H473.9z M467.12,404.99c-2.57,2.78-5.54,4.9-8.87,6.3
				c-3.33,1.4-7.03,2.11-11.07,2.11c-8.13,0-14.8-2.85-19.81-8.45c-4.96-5.54-7.48-12.41-7.48-20.43c0-8.01,2.52-14.89,7.48-20.46
				c5-5.58,11.66-8.41,19.81-8.41c8.11,0,14.81,2.83,19.94,8.41c5.06,5.48,7.62,12.32,7.62,20.3
				C474.74,392.57,472.18,399.5,467.12,404.99z"/>
		</g>
	</g>
	<g>
		<g>
			<path class="st0" d="M568.23,346.91l-24.06,59.57l-24.35-59.57h-13.22l33.16,75.22h8.38l33.17-75.22H568.23z"/>
		</g>
	</g>
	<g>
		<g>
			<path class="st0" d="M773.33,353.93c-5.74-5.44-12.65-8.1-21.13-8.1c-10.99,0-18.94,4.2-23.66,12.47l-1.86,3.42v-13.88h-11.59
				v75.38h11.85v-41.86c0-7.03,2.07-12.98,6.17-17.7c4.17-4.64,9.63-6.98,16.21-6.98c12.82,0,20.79,9.4,20.79,24.53v42.01h11.7
				v-45.91C781.81,367.02,779.03,359.38,773.33,353.93z"/>
		</g>
	</g>
	<g>
		<g>
			<path class="st0" d="M861.06,345.89v44.77c0,13.36-7.86,21.66-20.52,21.66c-12.54,0-20.33-8.3-20.33-21.66v-44.77h-11.85v45.19
				c0,19.48,12.64,32.07,32.18,32.07c20.18,0,32.22-11.98,32.22-32.07v-45.19H861.06z"/>
		</g>
	</g>
</g>
</svg>
